#define Smilie_width 8
#define Smilie_height 8
static unsigned char Smilie_bits[] = {
   0x3c, 0x42, 0xa9, 0x85, 0x85, 0xa9, 0x42, 0x3c };
